<?xml version="1.0" encoding="utf-8"?>
<!-- Generator: Adobe Illustrator 24.1.2, SVG Export Plug-In . SVG Version: 6.00 Build 0)  -->
<svg version="1.1" id="Layer_1" xmlns="http://www.w3.org/2000/svg" xmlns:xlink="http://www.w3.org/1999/xlink" x="0px" y="0px"
	 viewBox="0 0 6 6" style="enable-background:new 0 0 6 6;" xml:space="preserve">
<style type="text/css">
	.st0{fill:#FFFFFF;}
</style>
<path class="st0" d="M4.7,1.6C4.5,1.3,4.2,1.2,3.8,1.2C3.5,1.2,3.2,1.3,3,1.6L1.2,3.3c-0.3,0.3-0.3,0.8,0,1.2
	c0.2,0.2,0.4,0.3,0.6,0.3c0.2,0,0.4-0.1,0.6-0.2c0.4-0.4,0.8-0.8,1.2-1.2l0.5-0.5c0.1-0.1,0.1-0.2,0.1-0.3c0-0.2-0.1-0.4-0.3-0.5
	C3.9,2,3.8,2,3.7,2C3.6,2,3.5,2.1,3.4,2.1L2.3,3.3L2,3.6c0,0.1,0,0.1,0.1,0.2c0,0,0,0,0,0c0,0,0,0,0,0c0,0,0,0,0.1,0
	c0.1,0,0.1,0,0.1-0.1l1.4-1.4c0,0,0.1-0.1,0.1-0.1c0.1,0,0.1,0,0.1,0.1c0.1,0.1,0,0.2,0,0.3L2.2,4.4C2.1,4.4,1.9,4.5,1.8,4.5
	c-0.1,0-0.3-0.1-0.4-0.1C1.3,4.2,1.3,4.1,1.3,4c0-0.1,0-0.3,0.1-0.4l0.2-0.2c0.5-0.5,1.1-1.1,1.6-1.6c0.2-0.2,0.4-0.2,0.6-0.2
	c0.2,0,0.5,0.1,0.6,0.3C4.6,2,4.7,2.2,4.7,2.4c0,0.2-0.1,0.5-0.3,0.6L3,4.5c0,0-0.1,0.1-0.1,0.1c0,0,0,0.1,0,0.1l0.1,0
	c0.1,0,0.1,0,0.1-0.1l0.4-0.4C4,3.9,4.3,3.6,4.7,3.2C5.1,2.8,5.1,2,4.7,1.6z"/>
</svg>
