<?xml version="1.0" encoding="UTF-8"?>
<svg id="Layer_1" data-name="Layer 1" xmlns="http://www.w3.org/2000/svg" viewBox="0 0 6 6">
  <defs>
    <style>
      .cls-1 {
        fill: #fff;
      }
    </style>
  </defs>
  <path class="cls-1" d="M4.14108,3.2859l-1.09378-.71681c-.01402-.00908-.03045-.01389-.0474-.01389-.01683,0-.03312,.00481-.04727,.01389l-1.09365,.71681c-.02457,.01602-.03926,.043-.03926,.07238,0,.01709,.00494,.03338,.01415,.04727,.01589,.02457,.043,.03926,.07224,.03926,.01696,0,.03325-.00507,.0474-.01415l1.04638-.68583,1.04651,.68583c.01415,.00908,.03058,.01415,.0474,.01415,.02938,0,.05635-.01469,.07224-.03926,.01269-.01923,.01709-.0422,.01242-.0649-.00481-.0227-.01803-.04193-.03739-.05475Z"/>
</svg>