<?xml version="1.0" encoding="UTF-8"?>
<svg id="Layer_1" data-name="Layer 1" xmlns="http://www.w3.org/2000/svg" viewBox="0 0 5 4.70088">
  <defs>
    <style>
      .cls-1 {
        fill: #fff;
      }
    </style>
  </defs>
  <path class="cls-1" d="M3.98391,2.78627l-.59277,.59277-.28027-.28027c-.06055-.06152-.16016-.06152-.2207,0-.06152,.06055-.06152,.16016,0,.2207l.39062,.39062c.06055,.06152,.16016,.06152,.2207,0l.70313-.70312c.06152-.06055,.06152-.16016,0-.2207-.06055-.06152-.16016-.06152-.2207,0h0Z"/>
  <path class="cls-1" d="M3.54741,1.79548c-.801,0-1.45264,.65168-1.45264,1.45272,0,.801,.65164,1.45268,1.45264,1.45268s1.45259-.65168,1.45259-1.45268c0-.80104-.65159-1.45272-1.45259-1.45272Zm0,2.69322c-.68407,0-1.24063-.55638-1.24063-1.2405s.55655-1.24058,1.24063-1.24058,1.24063,.55647,1.24063,1.24058-.55655,1.2405-1.24063,1.2405Z"/>
  <path class="cls-1" d="M2.20075,0H.40527c-.22348,0-.40527,.18188-.40527,.40532,0,.18672,.12708,.34454,.29929,.39119V3.39783c0,.5535,.45022,1.00381,1.00372,1.00381,.32854,0,.6366-.16118,.82397-.43086l.03383-.0487-.0238-.05436c-.08589-.1961-.12948-.40458-.12948-.61951,0-.31987,.09678-.62596,.27989-.88518l.01936-.02764V.79651c.17221-.04665,.29925-.20447,.29925-.39119,0-.22343-.18175-.40532-.40527-.40532Zm0,.59849h-.10598v1.67027c-.19597,.28905-.29925,.62701-.29925,.97944,0,.22356,.04142,.44085,.12325,.64697-.14945,.18529-.37567,.29428-.61576,.29428-.43649,0-.79171-.35505-.79171-.79163V.59849h-.10603c-.10651,0-.19322-.08667-.19322-.19318s.08671-.19318,.19322-.19318h1.79548c.10655,0,.19326,.08667,.19326,.19318s-.08671,.19318-.19326,.19318Z"/>
</svg>