<svg xmlns="http://www.w3.org/2000/svg" viewBox="0 0 3.89307 3.89355"><path d="M4.19165.55322H1.66626A.256.256,0,0,0,1.4104.80859v.602H.80884A.2559.2559,0,0,0,.55347,1.666V4.19189a.25548.25548,0,0,0,.25537.25489H3.33423a.25591.25591,0,0,0,.25586-.25489v-.602h.60156a.25547.25547,0,0,0,.25488-.25537V.80859A.25548.25548,0,0,0,4.19165.55322Zm-.772,3.63867a.08545.08545,0,0,1-.08545.085H.80884a.08544.08544,0,0,1-.08545-.085V1.666a.08585.08585,0,0,1,.08545-.08545H3.33423a.08586.08586,0,0,1,.08545.08545V4.19189Zm.85693-.85742a.08543.08543,0,0,1-.085.08545H3.59009V1.666a.25633.25633,0,0,0-.25586-.25538H1.58032v-.602A.086.086,0,0,1,1.66626.72314H4.19165a.08544.08544,0,0,1,.085.08545Z" transform="translate(-0.55347 -0.55322)" fill="#fff"/></svg>