<svg xmlns="http://www.w3.org/2000/svg" viewBox="0 0 5 5"><path d="M3,.5A2.5,2.5,0,1,0,5.5,3,2.5029,2.5029,0,0,0,3,.5ZM3,5.24647A2.24647,2.24647,0,1,1,5.24647,3,2.24893,2.24893,0,0,1,3,5.24647Z" transform="translate(-0.5 -0.5)" fill="#ffc400"/><path d="M3.99623,2.01h-.762a.03968.03968,0,0,0-.03968.03968V4.52024a.163.163,0,0,1-.163.163H2.96451a.163.163,0,0,1-.163-.163V2.04968A.03967.03967,0,0,0,2.76183,2.01H2.00377a.163.163,0,0,1-.163-.163h0a.163.163,0,0,1,.163-.163H3.99623a.163.163,0,0,1,.163.163h0A.163.163,0,0,1,3.99623,2.01Z" transform="translate(-0.5 -0.5)" fill="#ffc400"/></svg>