<svg xmlns="http://www.w3.org/2000/svg" viewBox="0 0 6 6"><rect width="6" height="6" fill="none"/><path d="M5.28806,3.55344H4.4083V2.67386a.16693.16693,0,0,0-.33386,0v.87958H3.19486a.16693.16693,0,0,0,0,.33386h.87958v.87952a.16693.16693,0,0,0,.33386,0V3.8873h.87976a.16693.16693,0,0,0,0-.33386Z" transform="translate(0 0)" fill="#fff"/><path d="M3.4133,4.59988H1.16873a.29031.29031,0,0,1-.2901-.29V1.69a.29046.29046,0,0,1,.2901-.2901H3.78446a.29043.29043,0,0,1,.29.2901v.28522a.16693.16693,0,0,0,.33386,0V1.69a.62444.62444,0,0,0-.62384-.62372H1.16873A.62433.62433,0,0,0,.545,1.69V4.30991a.62443.62443,0,0,0,.62372.62384H3.4133a.16694.16694,0,0,0,0-.33387Z" transform="translate(0 0)" fill="#fff"/></svg>