<svg xmlns="http://www.w3.org/2000/svg" viewBox="0 0 1 1"><rect width="1" height="1" fill="none"/><path d="M.84829.35925.64153.15157a.03676.03676,0,0,0-.053-.00033A.03835.03835,0,0,0,.58818.20577L.79334.41339a.14151.14151,0,0,1,0,.19891L.61357.79416a.03856.03856,0,1,0,.05477.0543l.17995-.182A.21868.21868,0,0,0,.84829.35925Z" transform="translate(0 0)" fill="#fff"/><path d="M.74851.44007.47861.17024A.10247.10247,0,0,0,.406.14012H.1658A.07711.07711,0,0,0,.08869.21723V.45741A.1025.1025,0,0,0,.11881.53l.26983.2699a.103.103,0,0,0,.14555,0L.74851.58562A.103.103,0,0,0,.74851.44007ZM.26863.37146A.05141.05141,0,1,1,.32.32.05139.05139,0,0,1,.26863.37146ZM.60234.64133.59173.65212l-.00612,0L.565.63128H.56254A.06676.06676,0,0,1,.51411.64576.07947.07947,0,0,1,.46564.62142L.45856.61446.45851.60836.47336.59327.47945.59321.48562.59926a.05571.05571,0,0,0,.0345.01757A.0375.0375,0,0,0,.55133.60513.03915.03915,0,0,0,.563.57418.05079.05079,0,0,0,.54619.54074.05147.05147,0,0,0,.52409.52718.06705.06705,0,0,0,.50024.52493L.46119.52985A.43378.43378,0,0,1,.41772.53494.09241.09241,0,0,1,.38379.53036.083.083,0,0,1,.3514.50971.074.074,0,0,1,.32733.463.06611.06611,0,0,1,.34173.416V.4136L.31863.39151.31857.3854.32917.37461l.0061,0,.02311.0233L.36114.39816A.06243.06243,0,0,1,.40776.38677.08483.08483,0,0,1,.45469.412l.0077.00757L.46246.42571.44731.4411.4412.44116.4332.43328A.05665.05665,0,0,0,.39885.41555.0373.0373,0,0,0,.3675.42743a.03685.03685,0,0,0-.01121.029A.04968.04968,0,0,0,.37321.48876a.05271.05271,0,0,0,.02026.013A.0649.0649,0,0,0,.41761.50458L.45515.50029A.44924.44924,0,0,1,.50427.49437.0897.0897,0,0,1,.53651.49851a.07639.07639,0,0,1,.029.01884.08292.08292,0,0,1,.0259.047.06445.06445,0,0,1-.01105.047L.58071.614.60227.63523Z" transform="translate(0 0)" fill="#fff"/></svg>