<svg xmlns="http://www.w3.org/2000/svg" viewBox="0 0 4.07058 4.07058"><path d="M2.57058.57058a2,2,0,1,0,2,2A2.00232,2.00232,0,0,0,2.57058.57058Zm0,3.79718A1.79718,1.79718,0,1,1,4.36776,2.57058,1.79915,1.79915,0,0,1,2.57058,4.36776Z" transform="translate(-0.5 -0.5)" fill="#828384"/><path d="M1.99029,1.52885v.7957a.051.051,0,0,0,.051.051h1.055a.051.051,0,0,0,.051-.051v-.7957a.15439.15439,0,0,1,.15439-.15439h.00362a.15439.15439,0,0,1,.15439.15439V3.61232a.1544.1544,0,0,1-.15439.15439H3.30165a.15439.15439,0,0,1-.15439-.15439V2.69611a.051.051,0,0,0-.051-.051h-1.055a.051.051,0,0,0-.051.051v.91621a.15439.15439,0,0,1-.15439.15439h0a.15439.15439,0,0,1-.15439-.15439V1.52885a.15439.15439,0,0,1,.15439-.15439h0A.15439.15439,0,0,1,1.99029,1.52885Z" transform="translate(-0.5 -0.5)" fill="#828384"/><path d="M2.5.5a2,2,0,1,0,2,2A2.00232,2.00232,0,0,0,2.5.5Zm0,3.79718A1.79718,1.79718,0,1,1,4.29718,2.5,1.79916,1.79916,0,0,1,2.5,4.29718Z" transform="translate(-0.5 -0.5)" fill="#ffc400"/><path d="M1.91971,1.45827V2.254a.051.051,0,0,0,.051.051h1.055a.051.051,0,0,0,.051-.051V1.45827a.15439.15439,0,0,1,.15439-.15439h.00361a.15439.15439,0,0,1,.15439.15439V3.54173a.15439.15439,0,0,1-.15439.15439H3.23107a.15439.15439,0,0,1-.15439-.15439v-.9162a.051.051,0,0,0-.051-.051h-1.055a.051.051,0,0,0-.051.051v.9162a.15439.15439,0,0,1-.15439.15439h0a.15439.15439,0,0,1-.15439-.15439V1.45827a.15439.15439,0,0,1,.15439-.15439h0A.15439.15439,0,0,1,1.91971,1.45827Z" transform="translate(-0.5 -0.5)" fill="#ffc400"/></svg>