<svg xmlns="http://www.w3.org/2000/svg" viewBox="0 0 3.40904 3.3252"><path d="M1.25537,3.32522H.25928A.25944.25944,0,0,1,0,3.06594V.2593A.25944.25944,0,0,1,.25928,0h.99609A.25944.25944,0,0,1,1.51465.2593V3.06594A.25944.25944,0,0,1,1.25537,3.32522ZM.25928.16994A.08939.08939,0,0,0,.16993.2593V3.06594a.0894.0894,0,0,0,.08935.08936h.99609a.08941.08941,0,0,0,.08936-.08936V.2593A.08939.08939,0,0,0,1.25537.16994Z" transform="translate(0 -0.00002)" fill="#fff"/><path d="M3.14927,3.32522h-.9956a.25987.25987,0,0,1-.25977-.25928V2.3966a.085.085,0,0,1,.16992,0v.66934a.08982.08982,0,0,0,.08985.08936h.9956a.08982.08982,0,0,0,.08984-.08936V.2593A.08981.08981,0,0,0,3.14927.16994h-.9956A.08981.08981,0,0,0,2.06382.2593V.94a.085.085,0,0,1-.16992,0V.2593A.25985.25985,0,0,1,2.15367,0h.9956A.25985.25985,0,0,1,3.409.2593V3.06594A.25986.25986,0,0,1,3.14927,3.32522Z" transform="translate(0 -0.00002)" fill="#fff"/><path d="M2.99009.62147H2.31285A.085.085,0,0,1,2.30763.45155h.68246a.085.085,0,0,1,.00522.16992Z" transform="translate(0 -0.00002)" fill="#fff"/><path d="M2.99009,1.10338H2.31285A.085.085,0,0,1,2.30763.93346h.68246a.085.085,0,0,1,0,.16992Z" transform="translate(0 -0.00002)" fill="#fff"/><path d="M1.10254.62147H.4253a.085.085,0,0,1,0-.16992h.67724a.085.085,0,0,1,0,.16992Z" transform="translate(0 -0.00002)" fill="#fff"/><path d="M1.10254,1.10338H.4253a.085.085,0,0,1,0-.16992h.67724a.085.085,0,0,1,0,.16992Z" transform="translate(0 -0.00002)" fill="#fff"/><path d="M1.10254,1.74762H.4253a.085.085,0,0,1,0-.16992h.67724a.085.085,0,0,1,0,.16992Z" transform="translate(0 -0.00002)" fill="#fff"/><path d="M1.10254,2.39186H.4253a.085.085,0,0,1,0-.16992h.67724a.085.085,0,0,1,0,.16992Z" transform="translate(0 -0.00002)" fill="#fff"/><path d="M1.10254,2.8738H.4253a.085.085,0,0,1,0-.16992h.67724a.085.085,0,0,1,0,.16992Z" transform="translate(0 -0.00002)" fill="#fff"/><path d="M1.8939,2.14675V1.178A.05866.05866,0,0,1,1.994,1.13649l.48439.48439a.05866.05866,0,0,1,0,.083L1.994,2.18823A.05866.05866,0,0,1,1.8939,2.14675Z" transform="translate(0 -0.00002)" fill="#fff"/><path d="M2.16657,1.5774H.9552a.085.085,0,0,0,0,.16992H2.16657Z" transform="translate(0 -0.00002)" fill="#fff"/></svg>