<?xml version="1.0" encoding="UTF-8"?>
<svg id="Layer_1" data-name="Layer 1" xmlns="http://www.w3.org/2000/svg" viewBox="0 0 5 5.00038">
  <defs>
    <style>
      .cls-1 {
        fill: #fff;
      }
    </style>
  </defs>
  <path class="cls-1" d="M4.13233,5.00038c-.11846,0-.21474-.09641-.21474-.21487V1.08279H1.63227v-.42973H3.80593c.29845,0,.54114,.24281,.54114,.54127V3.91759h.43819c.11846,0,.21474,.09641,.21474,.21487s-.09628,.21512-.21474,.21512h-.43819v.43794c0,.11846-.09628,.21487-.21474,.21487Zm-2.93813-.6528c-.29845,0-.54127-.24307-.54127-.54152V1.08279H.21474c-.11846,0-.21474-.09641-.21474-.21487s.09628-.21487,.21474-.21487h.43819V.21512c0-.11846,.09628-.21512,.21474-.21512s.21487,.09666,.21487,.21512V3.91759H3.36773v.42999H1.1942Z"/>
</svg>