<?xml version="1.0" encoding="UTF-8"?>
<svg id="Layer_1" data-name="Layer 1" xmlns="http://www.w3.org/2000/svg" viewBox="0 0 3.32228 5">
  <defs>
    <style>
      .cls-1 {
        fill: #fff;
      }
    </style>
  </defs>
  <path class="cls-1" d="M3.15693,4.66896H.16552c-.09122,0-.16552,.07413-.16552,.16552s.0743,.16552,.16552,.16552H3.15693c.09122,0,.16535-.07413,.16535-.16552s-.07413-.16552-.16535-.16552Z"/>
  <path class="cls-1" d="M1.81239,4.19828l1.27934-1.27934c.08346-.08376,.08346-.21883,0-.30258-.08376-.08376-.21912-.08376-.30258,0l-.91423,.91401V.21411c0-.11826-.09555-.21411-.21381-.21411s-.21411,.09585-.21411,.21411V3.53037s-.91394-.91401-.91394-.91401c-.08346-.08376-.21883-.08376-.30258,0-.04188,.04188-.06252,.09644-.06252,.15129s.02064,.10941,.06252,.15129l1.27934,1.27934c.04011,.04011,.09437,.06282,.15129,.06282,.05662,0,.11118-.02271,.15129-.06282Z"/>
</svg>