<svg xmlns="http://www.w3.org/2000/svg" viewBox="0 0 6 6"><rect width="6" height="6" fill="none"/><path d="M5.403,5.0498H.59712a.09712.09712,0,0,0,0,.19424H5.403a.09712.09712,0,0,0,0-.19424Z" transform="translate(0 0)" fill="#fff"/><path d="M2.63049,4.42478l.039-.03357L4.58162,1.41935a.10243.10243,0,0,0-.03019-.14123L3.77418.77135a.09634.09634,0,0,0-.13337.029L1.71946,3.78347l-.01161.05044.05494.83588a.07055.07055,0,0,0,.09641.061ZM1.94141,4.48l-.04359-.61827L3.75055.98754l.62174.40486L2.53317,4.25556Z" transform="translate(0 0)" fill="#fff"/></svg>