<?xml version="1.0" encoding="UTF-8"?>
<svg id="Layer_1" data-name="Layer 1" xmlns="http://www.w3.org/2000/svg" viewBox="0 0 6 6">
  <defs>
    <style>
      .cls-1 {
        fill: #fff;
      }
    </style>
  </defs>
  <path class="cls-1" d="M4.16607,2.59432c-.01616-.02457-.04313-.03926-.07251-.03926-.01683,0-.03312,.00507-.04727,.01415l-1.04638,.6861-1.04638-.6861c-.01415-.00908-.03045-.01415-.04727-.01415-.02924,0-.05635,.01469-.07238,.03899-.00935,.01415-.01415,.03045-.01415,.04754,0,.02938,.01456,.05635,.03899,.07238l1.09365,.71655c.01415,.00961,.03058,.01442,.04754,.01442s.03338-.00481,.0474-.01415l1.09365-.71681c.01936-.01255,.03258-.03178,.03739-.05448,.00481-.02243,.0004-.04567-.01229-.06516Z"/>
</svg>