<svg xmlns="http://www.w3.org/2000/svg" viewBox="0 0 5 5"><rect width="5" height="5" fill="none"/><path d="M2.5.5a2,2,0,1,0,2,2A2.00232,2.00232,0,0,0,2.5.5Zm0,3.79718A1.79718,1.79718,0,1,1,4.29718,2.5,1.79916,1.79916,0,0,1,2.5,4.29718Z" fill="#bbbdbf"/><path d="M2.51538,3.11129a.13735.13735,0,0,1-.13751-.12517.70046.70046,0,0,0-.01827-.12285A.40769.40769,0,0,0,2.296,2.72814a1.41658,1.41658,0,0,0-.18283-.18283,1.33365,1.33365,0,0,1-.27981-.31319.56976.56976,0,0,1-.07154-.2814.58761.58761,0,0,1,.20349-.44992.777.777,0,0,1,.54531-.186.75571.75571,0,0,1,.51908.17329.68724.68724,0,0,1,.203.33346.14828.14828,0,0,1-.12758.18485h0a.15037.15037,0,0,1-.161-.10878.50863.50863,0,0,0-.133-.23306.4297.4297,0,0,0-.30525-.11447.44161.44161,0,0,0-.31955.12639.39668.39668,0,0,0-.13037.29332.337.337,0,0,0,.04452.17012.97237.97237,0,0,0,.19316.20906,2.13914,2.13914,0,0,1,.20588.19952.59387.59387,0,0,1,.11288.186.98469.98469,0,0,1,.04216.22471.14.14,0,0,1-.13916.15208Zm-.16532.411h0a.163.163,0,0,1,.163-.16295h0a.163.163,0,0,1,.16295.16295h0a.163.163,0,0,1-.16295.16295h0A.163.163,0,0,1,2.35006,3.52226Z" fill="#bbbdbf"/></svg>