<?xml version="1.0" encoding="UTF-8"?>
<svg id="Layer_1" data-name="Layer 1" xmlns="http://www.w3.org/2000/svg" viewBox="0 0 5 4.82759">
  <defs>
    <style>
      .cls-1 {
        fill: #fff;
      }
    </style>
  </defs>
  <path class="cls-1" d="M.41571,3.40627c.41046-.33876,.81658-.67392,1.22741-1.01299,.17175,.18194,.33808,.35814,.51619,.54682,.40645-.33716,.81017-.67206,1.2389-1.02771-.23962-.01661-.44924-.03114-.66255-.04592v-.14669c.31231,.01843,.61851,.0365,.94414,.05572-.04093,.31546-.08049,.62035-.12155,.93679-.04921-.00241-.09254-.00453-.14776-.00724,.02762-.21942,.05418-.4304,.08074-.64138-.0069-.0051-.0138-.0102-.0207-.0153-.43893,.36398-.87786,.72796-1.32361,1.09759-.17342-.18346-.34182-.36161-.51681-.54673-.34663,.28609-.68697,.56697-1.02539,.84628,.36209,.78456,1.36504,1.41185,2.44494,1.18725,1.03564-.21539,1.88979-1.185,1.78814-2.4428-.08206-1.01541-.99466-1.93229-1.99369-2.02504C1.59138,.04863,.73248,.913,.5206,1.58242c.20866-.09941,.40592-.19338,.61397-.2925,.02182,.04288,.04141,.08137,.06751,.13267-.28724,.13844-.56607,.27282-.85572,.41242-.11722-.29938-.2296-.58637-.34636-.88458,.0453-.01981,.08502-.03717,.13609-.0595,.07771,.19614,.15349,.38744,.23876,.60267C.65651,.867,1.09041,.42298,1.7081,.17729c.61563-.24487,1.23481-.23638,1.84194,.02727,.99775,.43328,1.58717,1.50789,1.42254,2.55999-.1774,1.13366-1.06382,1.90767-2.04727,2.04062-1.2156,.16433-2.18163-.60261-2.5096-1.3989Z"/>
</svg>