<svg xmlns="http://www.w3.org/2000/svg" viewBox="0 0 3.15527 3.15527"><path d="M4.05518,1.61719,3.38232.94482A.07993.07993,0,0,0,3.32715.92236H1.17334a.25091.25091,0,0,0-.251.251V3.82617a.25132.25132,0,0,0,.251.25147H3.82617a.25174.25174,0,0,0,.25147-.25147V1.67236A.0788.0788,0,0,0,4.05518,1.61719Zm-.65039-.42932.4071.40686H3.501A.09627.09627,0,0,1,3.40479,1.499Zm.51757,2.6383a.09669.09669,0,0,1-.09619.09619H1.17334a.09627.09627,0,0,1-.0957-.09619V1.17334a.09586.09586,0,0,1,.0957-.0957H3.24951V1.499A.25131.25131,0,0,0,3.501,1.75h.42138Z" transform="translate(-0.92236 -0.92236)" fill="#fff"/><path d="M1.76758,2.1874H1.9248v.63623a.26922.26922,0,0,1-.08105.20654.29993.29993,0,0,1-.21484.07666.30968.30968,0,0,1-.21924-.07177A.25787.25787,0,0,1,1.332,2.83584h.15723a.14736.14736,0,0,0,.03613.10888.14048.14048,0,0,0,.10352.03614.13038.13038,0,0,0,.10107-.042.1675.1675,0,0,0,.0376-.11572Z" transform="translate(-0.92236 -0.92236)" fill="#fff"/><path d="M2.26221,2.75771v.33692H2.10449V2.1874h.34668a.35157.35157,0,0,1,.2417.0791.26611.26611,0,0,1,.08936.20947.25689.25689,0,0,1-.08741.20752.36923.36923,0,0,1-.24511.07422Zm0-.12646h.189a.18637.18637,0,0,0,.12842-.03955A.14617.14617,0,0,0,2.624,2.477a.15709.15709,0,0,0-.04492-.11719.17279.17279,0,0,0-.12305-.04541H2.26221Z" transform="translate(-0.92236 -0.92236)" fill="#fff"/><path d="M3.61523,2.977a.30019.30019,0,0,1-.13671.09717.55635.55635,0,0,1-.19776.03271.38939.38939,0,0,1-.20215-.05175.34135.34135,0,0,1-.13574-.14795A.51891.51891,0,0,1,2.89355,2.683V2.61172a.48145.48145,0,0,1,.09864-.32129A.34.34,0,0,1,3.2666,2.1747a.36089.36089,0,0,1,.24024.07471.32117.32117,0,0,1,.10742.21582H3.46A.17378.17378,0,0,0,3.27,2.30166a.18608.18608,0,0,0-.16113.07617.38849.38849,0,0,0-.05664.22363v.07032a.37125.37125,0,0,0,.06152.228.20465.20465,0,0,0,.17285.08106.22824.22824,0,0,0,.17139-.0542V2.74892H3.27148V2.62929h.34375Z" transform="translate(-0.92236 -0.92236)" fill="#fff"/></svg>