<svg xmlns="http://www.w3.org/2000/svg" viewBox="0 0 28.35 28.35"><circle cx="14.17" cy="14.17" r="14.17" style="fill:#2e3690"/><path d="M24.29,18.22s0-.1,0-.15,0-.24-.05-.35,0-.13,0-.19l-.09-.35A1.72,1.72,0,0,0,24,17a1.43,1.43,0,0,0-.08-.22c-.05-.13-.1-.26-.16-.38l-.07-.15L23.56,16l0,0a5.52,5.52,0,0,0-1.7-1.77,5.44,5.44,0,0,0-2.75-.92h-4V4H9.73A5.65,5.65,0,0,0,4,9.19a5.5,5.5,0,0,0,2.47,4.92v0A5.5,5.5,0,0,0,4,19.05a5.65,5.65,0,0,0,5.69,5.21h8.89a5.63,5.63,0,0,0,5.68-5.21c0-.12,0-.23,0-.34S24.3,18.38,24.29,18.22Zm-11,.4a3.78,3.78,0,0,1-3.43,3.81,3.71,3.71,0,0,1-4-3.95A3.79,3.79,0,0,1,9.69,15h3.57Zm0-5.43s0,0,0,0H9.56A3.71,3.71,0,0,1,5.87,9.16,3.78,3.78,0,0,1,9.68,5.8h3.57s0,0,0,0Zm5.53,9.25H15.1a0,0,0,0,1,0,0V15h3.59a3.79,3.79,0,0,1,3.81,3.36A3.71,3.71,0,0,1,18.79,22.44Z" transform="translate(0 0)" style="fill:#fff"/><path d="M14.17,3.37a.86.86,0,1,0-.85-.85A.85.85,0,0,0,14.17,3.37Z" transform="translate(0 0)" style="fill:#fff"/></svg>