<svg xmlns="http://www.w3.org/2000/svg" viewBox="0 0 5 4.21894"><path d="M2.546,4.3237a.18187.18187,0,0,1-.18186-.18187V2.59088a.18187.18187,0,1,1,.36373,0V4.14183A.18188.18188,0,0,1,2.546,4.3237Z" transform="translate(-0.5 -0.89053)" fill="#ffc400"/><circle cx="2.04599" cy="1.06764" r="0.19781" fill="#ffc400"/><path d="M3.13425,4.63961A1.80278,1.80278,0,1,1,4.30008,2.52406a1.37843,1.37843,0,0,1,.25415.0259,2.04991,2.04991,0,1,0-1.2621,2.28977A1.37376,1.37376,0,0,1,3.13425,4.63961Z" transform="translate(-0.5 -0.89053)" fill="#ffc400"/><path d="M4.28612,2.68167A1.2139,1.2139,0,1,0,5.5,3.89553,1.21388,1.21388,0,0,0,4.28612,2.68167Zm.78954,1.42917H4.50145v.57424a.21533.21533,0,0,1-.43066,0V4.11084H3.49658a.21531.21531,0,1,1,0-.43062h.57421V3.106a.21533.21533,0,0,1,.43066,0v.57424h.57421a.21531.21531,0,1,1,0,.43062Z" transform="translate(-0.5 -0.89053)" fill="#ffc400"/></svg>