<svg xmlns="http://www.w3.org/2000/svg" viewBox="0 0 3.98052 4.99777"><path d="M2.62108.81356a.31385.31385,0,1,0,.31384.31389A.31385.31385,0,0,0,2.62108.81356Z" transform="translate(-0.50974 -0.00112)" fill="#ffc400"/><path d="M4.09963.00112H1.26126V.00168A.75746.75746,0,0,0,.50991.75634H.50974V4.25067H.51061a.75731.75731,0,0,0,.756.74821h.03987a.09557.09557,0,0,0,.0956-.0956V3.7395H4.09928a.39153.39153,0,0,0,.391-.39092V.39194A.39148.39148,0,0,0,4.09963.00112ZM1.13117,4.70871a.487.487,0,0,1-.35049-.46682V1.3379a.75349.75349,0,0,0,.35049.16507ZM4.21934,3.3484a.12021.12021,0,0,1-.12006.12006H1.40211V1.33977a.09557.09557,0,0,0-.0956-.09561h-.011A.506.506,0,0,1,.78329.8089.48648.48648,0,0,1,1.26664.27215V.27206H4.09928a.12021.12021,0,0,1,.12006.12006Z" transform="translate(-0.50974 -0.00112)" fill="#ffc400"/></svg>