<svg xmlns="http://www.w3.org/2000/svg" viewBox="0 0 5 4.07297"><path d="M5.44174.99176A.14477.14477,0,0,0,5.31407.96967l-1.52872.46384L2.25651.96967,2.24737.96909a.14255.14255,0,0,0-.03307-.002.1481.1481,0,0,0-.03209.002L2.17279.96967.60221,1.44618A.14416.14416,0,0,0,.5,1.58409V4.89241a.14423.14423,0,0,0,.18593.13791l1.52872-.46384,1.52884.46384a.14531.14531,0,0,0,.08372,0l1.57058-.47657A.1441.1441,0,0,0,5.5,4.41584V1.10758A.14441.14441,0,0,0,5.44174.99176Zm-4.6536.69931,1.28244-.38919V4.309L.78814,4.69811Zm1.57058-.38919,1.28256.38919v3.007L2.35872,4.309ZM5.21186,4.309l-1.28244.38913v-3.007l1.28244-.38919Z" transform="translate(-0.5 -0.96352)" fill="#ffc400"/></svg>