<svg xmlns="http://www.w3.org/2000/svg" viewBox="0 0 3.15527 3.15527"><path d="M4.05518,1.61719,3.38232.94482A.07993.07993,0,0,0,3.32715.92236H1.17334a.25091.25091,0,0,0-.251.251V3.82617a.25132.25132,0,0,0,.251.25147H3.82617a.25174.25174,0,0,0,.25147-.25147V1.67236A.0788.0788,0,0,0,4.05518,1.61719Zm-.65039-.42932.4071.40686H3.501A.09627.09627,0,0,1,3.40479,1.499Zm.51757,2.6383a.09669.09669,0,0,1-.09619.09619H1.17334a.09627.09627,0,0,1-.0957-.09619V1.17334a.09586.09586,0,0,1,.0957-.0957H3.24951V1.499A.25131.25131,0,0,0,3.501,1.75h.42138Z" transform="translate(-0.92236 -0.92236)" fill="#fff"/><path d="M1.55414,2.75771v.33692H1.39643V2.1874h.34668a.35157.35157,0,0,1,.2417.0791.2661.2661,0,0,1,.08935.20947.25691.25691,0,0,1-.0874.20752.36927.36927,0,0,1-.24512.07422Zm0-.12646h.189a.18632.18632,0,0,0,.12841-.03955A.14617.14617,0,0,0,1.916,2.477.15713.15713,0,0,0,1.871,2.35976.17281.17281,0,0,0,1.748,2.31435H1.55414Z" transform="translate(-0.92236 -0.92236)" fill="#fff"/><path d="M2.21186,3.09463V2.1874h.26806a.41921.41921,0,0,1,.21289.05371.36759.36759,0,0,1,.14453.15186.48148.48148,0,0,1,.05127.22558v.0459a.47389.47389,0,0,1-.05175.22608.358.358,0,0,1-.14649.15087.43476.43476,0,0,1-.21777.05323Zm.15771-.78028v.6543h.10254a.23717.23717,0,0,0,.19043-.07715.33821.33821,0,0,0,.06787-.22314v-.0503A.346.346,0,0,0,2.666,2.39248a.22835.22835,0,0,0-.186-.07813Z" transform="translate(-0.92236 -0.92236)" fill="#fff"/><path d="M3.56781,2.70986H3.20307v.38477H3.04535V2.1874h.57617v.127H3.20307v.27h.36474Z" transform="translate(-0.92236 -0.92236)" fill="#fff"/></svg>