<?xml version="1.0" encoding="UTF-8"?>
<svg id="Layer_1" data-name="Layer 1" xmlns="http://www.w3.org/2000/svg" viewBox="0 0 5 4">
  <defs>
    <style>
      .cls-1 {
        fill: #fff;
      }
    </style>
  </defs>
  <path class="cls-1" d="M4.625,2.25h-.125v-.58828c0-.32687-.23461-.62531-.55984-.65836-.37375-.03773-.69016,.25523-.69016,.62164v.625h-.125c-.20625,0-.375,.16875-.375,.375v1c0,.20625,.16875,.375,.375,.375h1.5c.20625,0,.375-.16875,.375-.375v-1c0-.20625-.16875-.375-.375-.375Zm-.75,1.125c-.13766,0-.25-.11234-.25-.25s.11234-.25,.25-.25,.25,.11234,.25,.25-.1125,.25-.25,.25Zm.25-1.125h-.5v-.625c0-.13766,.11234-.25,.25-.25s.25,.11234,.25,.25v.625Zm-2.375-.25c.55234,0,1-.44773,1-1s-.44766-1-1-1S.75,.44773,.75,1s.44766,1,1,1Zm.75,.625c0-.06775,.01358-.1318,.03362-.19297-.12268-.03672-.25315-.05703-.38752-.05703h-.79219c-.74758,0-1.35391,.60703-1.35391,1.35469,0,.14922,.12125,.27031,.27078,.27031H2.62781c-.07859-.10469-.12781-.23359-.12781-.375v-1Z"/>
</svg>