<?xml version="1.0" encoding="UTF-8"?>
<svg id="Layer_1" data-name="Layer 1" xmlns="http://www.w3.org/2000/svg" xmlns:xlink="http://www.w3.org/1999/xlink" viewBox="0 0 10 10">
  <defs>
    <style>
      .cls-1, .cls-2 {
        fill: #fff;
      }

      .cls-3 {
        fill: #ff9d3a;
      }

      .cls-4 {
        filter: url(#drop-shadow-1);
      }

      .cls-2 {
        filter: url(#drop-shadow-2);
      }
    </style>
    <filter id="drop-shadow-1" filterUnits="userSpaceOnUse">
      <feOffset dx=".2" dy=".2"/>
      <feGaussianBlur result="blur" stdDeviation=".2"/>
      <feFlood flood-color="#000" flood-opacity=".4"/>
      <feComposite in2="blur" operator="in"/>
      <feComposite in="SourceGraphic"/>
    </filter>
    <filter id="drop-shadow-2" filterUnits="userSpaceOnUse">
      <feOffset dx="1" dy="1"/>
      <feGaussianBlur result="blur-2" stdDeviation="1"/>
      <feFlood flood-color="#000" flood-opacity=".5"/>
      <feComposite in2="blur-2" operator="in"/>
      <feComposite in="SourceGraphic"/>
    </filter>
  </defs>
  <circle class="cls-3" cx="5" cy="5" r="5"/>
  <g class="cls-4">
    <path class="cls-1" d="M5.44317,5.7498c0-.12793-.04036-.23327-.12092-.31604-.08072-.08271-.21526-.15713-.40377-.2232-.18835-.06603-.33472-.12757-.4391-.1846-.34768-.18634-.52144-.46311-.52144-.83025,0-.24751,.07537-.45126,.22628-.6112,.15091-.1599,.35498-.25448,.61238-.2837v-.31182c0-.09852,.07986-.17838,.17838-.17838h.00195c.09852,0,.17838,.07986,.17838,.17838v.316c.25999,.03756,.46098,.14779,.60281,.33064,.08512,.10964,.14467,.23888,.17872,.38775,.03812,.16668-.09537,.32461-.26635,.32461h0c-.12654,0-.23572-.08834-.26334-.21182-.0204-.09121-.05535-.1687-.10483-.23248-.08412-.10848-.1984-.16272-.34315-.16272-.14313,0-.25513,.03894-.33585,.11683-.08056,.07788-.12092,.18914-.12092,.33374,0,.13075,.04004,.23505,.11995,.31292,.07991,.07788,.21558,.15194,.40685,.22214,.1911,.07025,.34104,.13528,.44948,.19506,.10844,.05981,.20018,.12829,.27539,.20547,.07505,.07718,.13275,.16584,.17311,.26597s.06046,.21767,.06046,.35253c0,.25173-.07748,.45616-.2326,.61329-.15512,.15717-.37021,.2496-.64561,.27744v.25969c0,.09852-.07986,.17838-.17838,.17838h0c-.09852,0-.17838-.07986-.17838-.17838v-.2576c-.29614-.03201-.52388-.13768-.68305-.31707-.09494-.10689-.16157-.23453-.19991-.3829-.0434-.16794,.09164-.33051,.2651-.33051h.00158c.12337,0,.23193,.08374,.26127,.20356,.02281,.09314,.06296,.17096,.12047,.23345,.09515,.10362,.22903,.15542,.4015,.15542,.17101,0,.301-.04101,.38999-.12309,.08899-.08204,.13356-.19119,.13356-.3275Z"/>
    <path class="cls-2" d="M7.84033,3.01242l-2.66057-1.53599c-.05427-.03139-.11649-.04785-.17969-.04785s-.12556,.01646-.18039,.04785l-2.66016,1.53627c-.20982,.12416-.3118,.30078-.3118,.54018v3.07171c0,.12807,.06892,.24749,.18011,.31208l2.65988,1.53544c.11258,.06669,.21498,.09933,.31292,.09933,.12068,0,.21401-.04841,.31138-.09891l2.66016-1.53599c.11105-.06403,.18011-.18359,.18011-.31194V3.55287c0-.26032-.08147-.40151-.31194-.54046Zm-.14537,3.55636l-2.46638,1.42397v-.56138h-.45731v.5611l-2.46638-1.42369V3.72056l.89579,.51716,.33482-.33468-1.00209-.5784,2.46652-1.42411,2.46652,1.42411-1.09947,.63463,.33482,.33482,.99316-.57338v2.84807Z"/>
  </g>
</svg>