<?xml version="1.0" encoding="UTF-8"?>
<svg id="Layer_1" data-name="Layer 1" xmlns="http://www.w3.org/2000/svg" viewBox="0 0 10 9.99986">
  <defs>
    <style>
      .cls-1 {
        fill: #42c4a4;
      }
    </style>
  </defs>
  <path class="cls-1" d="M5.00007,9.99986C2.24308,9.99986,0,7.75678,0,4.99993S2.24308,0,5.00007,0s4.99993,2.24294,4.99993,4.99993-2.24308,4.99993-4.99993,4.99993ZM5.00007,.27777C2.39621,.27777,.27777,2.39607,.27777,4.99993s2.11843,4.72216,4.72229,4.72216,4.72216-2.1183,4.72216-4.72216S7.60393,.27777,5.00007,.27777Z"/>
  <g>
    <path class="cls-1" d="M4.30059,3.57434c-.09413,0-.1709,.07677-.1709,.17103v1.77651c0,.1062-.01682,.1888-.05181,.25322-.0293,.05303-.08925,.12275-.21077,.15408-.0708,.01817-.16357,.02699-.28374,.02699-.03364,0-.07351-.00339-.11908-.01071-.05154-.00814-.10281-.02468-.15218-.0491-.05914-.02903-.10823-.07338-.14784-.13387-.0453-.07202-.06836-.16222-.06836-.26787l.00027-.02794c.00326-.07026,.01628-.14662,.03852-.22705,.0198-.07161-.02116-.15191-.09684-.18744-.0236-.01112-.04856-.01682-.07487-.01682-.06185,0-.13807,.03567-.16005,.11366-.02903,.10511-.04557,.20819-.0491,.31087l-.00136,.03933c0,.07731,.00868,.1515,.02631,.22122,.01139,.04625,.02686,.0982,.04584,.1553,.01736,.05127,.04015,.09901,.06836,.14268,.07188,.11325,.16357,.19694,.27967,.25607,.118,.05995,.25607,.09033,.41069,.09033,.1671,0,.30897-.01736,.42154-.05154,.12315-.03771,.21918-.09345,.29107-.16845,.04937-.05425,.08545-.11434,.1104-.18351,.02686-.07528,.04449-.15137,.05263-.22583,.00841-.08084,.01275-.15218,.01275-.21362v-1.77651c0-.09426-.07677-.17103-.17117-.17103Z"/>
    <path class="cls-1" d="M6.54625,5.23678c.01872-.05737,.03174-.11298,.03879-.16615,.00353-.02563,.00488-.05249,.00488-.08057,0-.05724-.00678-.12207-.02007-.19287l-.02197-.11841c-.01492-.08192-.08599-.14146-.16873-.14146-.01655,0-.03309,.00258-.05018,.00773-.08409,.0255-.13509,.10986-.11854,.19612l.02279,.11854c.00624,.03079,.00895,.05751,.00895,.08029,0,.06402-.02794,.12125-.07541,.15571-.05046,.03798-.11502,.04232-.15896,.04232h-.68657c-.04449,0-.09033-.01451-.1359-.04327-.03743-.02333-.09983-.07948-.09983-.1926v-1.15667c0-.0944-.07677-.17117-.17117-.17117s-.17117,.07677-.17144,.1709l-.00081,1.22815c0,.07473,.00841,.1397,.02468,.19328,.01709,.05534,.03743,.102,.06049,.13889,.02387,.03771,.04774,.06836,.07216,.09209,.0236,.02346,.05507,.04774,.09331,.07229,.03635,.02306,.08274,.04327,.13699,.05981,.05344,.01587,.11746,.02414,.19043,.02441v-.00298h.68765c.10227,0,.19043-.01153,.25499-.03187,.0925-.03526,.16439-.08735,.22216-.16235,.02414-.02997,.04476-.07039,.06131-.12017Z"/>
    <path class="cls-1" d="M5.77423,6.02412c-.09182,.09169-.09196,.24034-.00041,.3323,.09182,.09209,.24102,.09223,.33298,.00027,.09189-.09209,.09169-.24115-.00041-.33284-.09189-.09155-.24048-.09142-.33216,.00027Z"/>
    <path class="cls-1" d="M5.22526,6.02412c-.09162,.09169-.09182,.2402-.00041,.33216,.09175,.09223,.24102,.09237,.33298,.00041,.09203-.09196,.09182-.24115-.00041-.33298-.09189-.09142-.24048-.09128-.33216,.00041Z"/>
    <path class="cls-1" d="M7.07576,4.65614c-.09467,0-.17171,.07704-.17171,.17171v.50319c0,.067-.00705,.14051-.02116,.21796-.01655,.09372-.05235,.17524-.10227,.23668-.06212,.08504-.17035,.13943-.32199,.16154-.09114,.01343-.1576,.08545-.1576,.1713v.067c0,.09481,.07785,.17198,.17334,.17198l.0198-.00109c.13319-.01465,.19205-.03743,.21484-.04964l.02767-.01465c.11773-.06239,.21918-.11624,.29351-.20128,.067-.07433,.1199-.18039,.15733-.31521,.03988-.14377,.05995-.29337,.05995-.4446v-.50319c0-.09467-.07704-.17171-.17171-.17171Z"/>
  </g>
</svg>