<?xml version="1.0" encoding="utf-8"?>
<!-- Generator: Adobe Illustrator 26.5.0, SVG Export Plug-In . SVG Version: 6.00 Build 0)  -->
<svg version="1.1" id="Layer_1" xmlns="http://www.w3.org/2000/svg" xmlns:xlink="http://www.w3.org/1999/xlink" x="0px" y="0px"
	 viewBox="0 0 5 5.2" style="enable-background:new 0 0 5 5.2;" xml:space="preserve">
<style type="text/css">
	.st0{fill:#FFFFFF;}
</style>
<path class="st0" d="M0.6,0.4l0.1,0l0,0c0,0.1,0,0.1,0,0.2l0,0c0,0,0,0.1,0,0.1c0,0.1,0.2,0.2,0.2,0.2c0.3,0,0.6,0,0.8,0h0.3l0.4,0
	c0.1,0,0.2-0.1,0.2-0.2c0-0.1,0-0.1,0-0.2v0c0,0,0,0,0.1,0c0.1,0,0.1,0,0.2,0c0.1,0,0.1,0,0.2,0c0.1,0,0.2,0.1,0.2,0.3
	c0,0.3,0,0.7,0,1c0,0.3,0,0.5,0,0.8C3.1,2.5,2.9,2.7,2.7,2.8c0,0,0,0,0,0c-0.6,0-1.2,0-1.8,0H0.5l0,0c0,0,0,0,0,0c0,0-0.1,0-0.1,0
	c0,0-0.1,0.1-0.1,0.1c0,0.1,0,0.1,0.1,0.2c0,0,0.1,0,0.1,0h0l0,0c0.6,0,1.1,0,1.7,0h0.2C2.3,3.4,2.2,3.6,2.2,3.8l-0.9,0l-0.9,0l0,0
	l0,0c0,0,0,0,0,0c-0.1,0-0.1,0-0.1,0.1c0,0,0,0.1,0,0.1c0,0.1,0.1,0.2,0.2,0.2l0.5,0l0.3,0h0.3l0.2,0l0.2,0c0.1,0,0.2,0,0.4,0
	c0,0.2,0.1,0.4,0.2,0.5L2,4.7l-0.6,0c-0.3,0-0.6,0-1,0c-0.1,0-0.1,0-0.2-0.1C0.1,4.6,0.1,4.5,0.1,4.4c0-1.3,0-2.6,0-3.7
	c0-0.1,0.1-0.3,0.3-0.3C0.5,0.4,0.5,0.4,0.6,0.4 M0.4,1.3L0.4,1.3L0.4,1.3l1.5,0l0.2,0c0.3,0,0.5,0,0.8,0c0,0,0.1,0,0.1,0
	c0,0,0.1-0.1,0.1-0.2c0-0.1,0-0.1-0.1-0.2c0,0-0.1,0-0.1,0c-0.5,0-1,0-1.5,0H0.9l-0.1,0l-0.1,0c-0.1,0-0.1,0-0.2,0
	C0.3,0.9,0.2,1,0.2,1.1C0.2,1.2,0.3,1.3,0.4,1.3C0.4,1.3,0.4,1.3,0.4,1.3 M0.5,2l0-0.1c0,0,0,0-0.1,0C0.3,1.9,0.2,2,0.2,2.1
	c0,0.1,0.1,0.2,0.2,0.2c0,0,0,0,0,0l0,0l0,0l1.3,0H2l0.2,0l0.3,0c0.2,0,0.3,0,0.5,0c0.1,0,0.2-0.1,0.2-0.1c0-0.1,0-0.2-0.1-0.2
	c0,0-0.1,0-0.1,0l-0.6,0c-0.6,0-1.3,0-1.9,0L0.5,2 M0.6,0.3c-0.1,0-0.1,0-0.2,0C0.2,0.3,0,0.5,0,0.7c0,1.2,0,2.5,0,3.7
	c0,0.2,0.2,0.4,0.4,0.4h0c0.3,0,0.6,0,1,0c0.4,0,0.8,0,1.2,0h0.1c0,0,0,0,0-0.1C2.5,4.6,2.4,4.4,2.3,4.1c0,0,0-0.1-0.1-0.1h0
	c-0.1,0-0.3,0-0.4,0c-0.1,0-0.3,0-0.4,0H0.9c-0.2,0-0.3,0-0.5,0h0c0,0-0.1,0-0.1-0.1c0,0,0-0.1,0.1-0.1c0,0,0,0,0,0c0,0,0,0,0,0
	c0.6,0,1.2,0,1.8,0h0.1c0-0.3,0.1-0.6,0.3-0.8H2.5c-0.7,0-1.4,0-2,0c0,0,0,0,0,0c0,0,0,0-0.1,0c0,0,0-0.1,0-0.1c0,0,0,0,0.1-0.1
	c0,0,0,0,0,0c0,0,0,0,0,0c0.7,0,1.5,0,2.2,0c0,0,0.1,0,0.1,0c0.2-0.2,0.4-0.3,0.6-0.4c0,0,0.1,0,0.1-0.1c0-0.6,0-1.2,0-1.8
	c0-0.2-0.1-0.4-0.3-0.4c-0.1,0-0.1,0-0.2,0c-0.1,0-0.2,0-0.3,0v0.1c0,0.1,0,0.2,0,0.3c0,0.1,0,0.1-0.1,0.1c-0.1,0-0.2,0-0.4,0H1.8
	c-0.3,0-0.6,0-0.8,0h0c-0.1,0-0.1,0-0.1-0.1c0,0,0-0.1,0-0.1c0-0.1,0-0.2,0-0.3C0.7,0.3,0.6,0.3,0.6,0.3L0.6,0.3L0.6,0.3z M0.4,1.2
	C0.4,1.2,0.4,1.2,0.4,1.2c-0.1,0-0.1,0-0.1-0.1c0,0,0-0.1,0.1-0.1c0.1,0,0.1,0,0.2,0c0.1,0,0.2,0,0.3,0h0.6c0.5,0,1,0,1.5,0
	c0,0,0.1,0,0.1,0c0,0,0,0,0,0.1c0,0,0,0.1,0,0.1c0,0-0.1,0-0.1,0c-0.3,0-0.5,0-0.8,0c-0.2,0-0.3,0-0.5,0L0.4,1.2
	C0.5,1.2,0.5,1.2,0.4,1.2L0.4,1.2L0.4,1.2z M0.5,2c0.6,0,1.3,0,1.9,0C2.6,2,2.8,2,3,2C3,2,3,2,3,2c0,0,0,0,0,0.1c0,0,0,0.1-0.1,0.1
	h0c-0.2,0-0.3,0-0.5,0c-0.2,0-0.3,0-0.5,0H1.7c-0.4,0-0.8,0-1.3,0c0,0,0,0,0,0c0,0,0,0,0,0c0,0-0.1,0-0.1-0.1C0.3,2,0.4,2,0.5,2
	C0.4,2,0.4,2,0.5,2L0.5,2L0.5,2z"/>
<path class="st0" d="M1.7,0.1l0.6,0c0,0.1,0,0.3,0,0.4H1.7l-0.2,0H1.4l-0.2,0c0-0.1,0-0.3,0-0.4L1.7,0.1 M1.7,0C1.5,0,1.3,0,1.1,0
	C1.1,0,1,0,1,0.1c0,0.1,0,0.3,0,0.4c0,0.1,0,0.1,0.1,0.1c0.1,0,0.2,0,0.2,0c0.1,0,0.2,0,0.4,0h0.6c0.1,0,0.1,0,0.1-0.1
	c0-0.1,0-0.3,0-0.4C2.4,0,2.4,0,2.3,0C2.1,0,1.9,0,1.7,0L1.7,0L1.7,0z"/>
<g>
	<path class="st0" d="M3.7,2.8c0.6,0,1.2,0.5,1.2,1.2c0,0.6-0.5,1.2-1.2,1.2c-0.6,0-1.2-0.5-1.2-1.2C2.6,3.3,3.1,2.8,3.7,2.8
		 M3.1,3.8C3,3.8,2.9,3.8,2.9,3.9v0.1c0,0.1,0,0.1,0.1,0.1C3,4.2,2.9,4.3,2.9,4.3v0.1c0,0.1,0.1,0.1,0.1,0.2v0.1
		c0,0.1,0.1,0.2,0.2,0.2h0.1c0.1,0,0.2-0.1,0.2-0.2V4.6H4c0.1,0,0.2-0.1,0.2-0.2V4.3c0-0.1-0.1-0.1-0.1-0.1c0.3-0.1,0.5-0.3,0.5-0.6
		C4.5,3.3,4.3,3,3.9,3H3.2C3.1,3,3.1,3.1,3.1,3.1L3.1,3.8 M3.7,2.7C3,2.7,2.5,3.2,2.5,3.9c0,0.7,0.6,1.3,1.3,1.3
		C4.4,5.2,5,4.6,5,3.9C5,3.2,4.4,2.7,3.7,2.7C3.7,2.7,3.7,2.7,3.7,2.7z M3.1,4.1C3.1,4.1,3,4.1,3.1,4.1l0-0.2c0,0,0,0,0,0h0.1V3.1
		c0,0,0,0,0,0h0.7c0.3,0,0.5,0.2,0.5,0.5S4.2,4.1,3.9,4.1H3.4v0.2H4c0,0,0,0,0,0v0.1c0,0,0,0,0,0H3.4v0.2c0,0,0,0,0,0H3.2
		c0,0,0,0,0,0V4.5H3.1c0,0,0,0,0,0V4.3c0,0,0,0,0,0h0.1L3.1,4.1C3.2,4.1,3.1,4.1,3.1,4.1z"/>
	<path class="st0" d="M3.9,3.4c0.1,0,0.2,0.1,0.2,0.2c0,0,0,0.1,0,0.1c0,0-0.1,0.1-0.1,0.1H3.5V3.4L3.9,3.4 M3.9,3.3H3.4v0.6h0.5
		c0.2,0,0.3-0.1,0.3-0.3C4.2,3.4,4.1,3.3,3.9,3.3C3.9,3.3,3.9,3.3,3.9,3.3z"/>
</g>
</svg>
