<?xml version="1.0" encoding="UTF-8"?>
<svg id="Layer_1" data-name="Layer 1" xmlns="http://www.w3.org/2000/svg" xmlns:xlink="http://www.w3.org/1999/xlink" viewBox="0 0 10 10">
  <defs>
    <style>
      .cls-1 {
        fill: #fff;
      }

      .cls-2 {
        filter: url(#drop-shadow-1);
      }

      .cls-3 {
        fill: #5c99ff;
      }
    </style>
    <filter id="drop-shadow-1" filterUnits="userSpaceOnUse">
      <feOffset dx=".2" dy=".2"/>
      <feGaussianBlur result="blur" stdDeviation=".2"/>
      <feFlood flood-color="#000" flood-opacity=".4"/>
      <feComposite in2="blur" operator="in"/>
      <feComposite in="SourceGraphic"/>
    </filter>
  </defs>
  <circle class="cls-3" cx="5" cy="5" r="5"/>
  <g class="cls-2">
    <path class="cls-1" d="M5,8.57143c-1.96928,0-3.57142-1.60214-3.57142-3.57143S3.03072,1.42857,5,1.42857s3.57142,1.60214,3.57142,3.57143-1.60214,3.57143-3.57142,3.57143Zm0-6.71958c-1.73589,0-3.14816,1.41226-3.14816,3.14816s1.41227,3.14816,3.14816,3.14816,3.14816-1.41226,3.14816-3.14816-1.41227-3.14816-3.14816-3.14816Z"/>
    <path class="cls-1" d="M5,7.42128c-.17532,0-.31746-.14213-.31746-.31746v-2.70727c0-.17533,.14214-.31746,.31746-.31746s.31746,.14213,.31746,.31746v2.70727c0,.17533-.14214,.31746-.31746,.31746Z"/>
    <circle class="cls-1" cx="4.99998" cy="3.29213" r=".34529"/>
  </g>
</svg>