<svg xmlns="http://www.w3.org/2000/svg" viewBox="0 0 4 3.03806"><path d="M3.12294,3.5H1.87706a.08309.08309,0,1,0,0,.16617H3.12294a.08309.08309,0,1,0,0-.16617Z" transform="translate(-0.5 -0.98097)" fill="#fff"/><path d="M3.12294,3.11772H1.87706a.08309.08309,0,1,0,0,.16617H3.12294a.08309.08309,0,1,0,0-.16617Z" transform="translate(-0.5 -0.98097)" fill="#fff"/><path d="M3.99961,1.61386H3.6088V1.38179A.40128.40128,0,0,0,3.208.981H1.792a.40128.40128,0,0,0-.40082.40082v.23207H1.00039A.50094.50094,0,0,0,.5,2.11423V2.976a.501.501,0,0,0,.50039.50037H1.3912v.32611a.21683.21683,0,0,0,.21659.21658H3.39221a.21683.21683,0,0,0,.21659-.21658V3.47634h.39081A.501.501,0,0,0,4.5,2.976V2.11423A.50094.50094,0,0,0,3.99961,1.61386ZM1.55739,1.38179A.2349.2349,0,0,1,1.792,1.14715H3.208a.2349.2349,0,0,1,.23463.23464v.23207H1.55739ZM3.44261,3.80245a.05046.05046,0,0,1-.0504.0504H1.60779a.05046.05046,0,0,1-.0504-.0504V2.88212H3.44261v.92033Zm.8912-.82648a.33457.33457,0,0,1-.3342.33419H3.6088v-.428h.03671a.08309.08309,0,0,0,0-.16618h-2.291a.08309.08309,0,0,0,0,.16618H1.3912v.428H1.00039A.33457.33457,0,0,1,.66619,2.976V2.11423a.33458.33458,0,0,1,.3342-.3342H3.99961a.33458.33458,0,0,1,.3342.3342Z" transform="translate(-0.5 -0.98097)" fill="#fff"/><path d="M1.03706,2.06768a.09874.09874,0,1,0,.09873.09874A.09874.09874,0,0,0,1.03706,2.06768Z" transform="translate(-0.5 -0.98097)" fill="#fff"/></svg>