<?xml version="1.0" encoding="UTF-8"?>
<svg id="Layer_1" data-name="Layer 1" xmlns="http://www.w3.org/2000/svg" xmlns:xlink="http://www.w3.org/1999/xlink" viewBox="0 0 5 4.42821">
  <defs>
    <style>
      .cls-1 {
        filter: url(#drop-shadow-2);
      }

      .cls-1, .cls-2 {
        fill: #bfb378;
      }

      .cls-2 {
        filter: url(#drop-shadow-1);
      }
    </style>
    <filter id="drop-shadow-1" filterUnits="userSpaceOnUse">
      <feOffset dx=".79511" dy=".79511"/>
      <feGaussianBlur result="blur" stdDeviation=".79511"/>
      <feFlood flood-color="#000" flood-opacity=".5"/>
      <feComposite in2="blur" operator="in"/>
      <feComposite in="SourceGraphic"/>
    </filter>
    <filter id="drop-shadow-2" filterUnits="userSpaceOnUse">
      <feOffset dx=".79511" dy=".79511"/>
      <feGaussianBlur result="blur-2" stdDeviation=".79511"/>
      <feFlood flood-color="#000" flood-opacity=".5"/>
      <feComposite in2="blur-2" operator="in"/>
      <feComposite in="SourceGraphic"/>
    </filter>
  </defs>
  <path class="cls-2" d="M1.72347,4.42821c-.04512,0-.08759-.01699-.11997-.0499L.04977,2.82564c-.06635-.06635-.06635-.17411,0-.24047,.03238-.03238,.07538-.05043,.12103-.05043,.04512,0,.08812,.01805,.1205,.05043l1.4205,1.43111L4.70884,1.03198c.03291-.03238,.07538-.05043,.12103-.05043s.08812,.01805,.11997,.05043c.06688,.06635,.06688,.17411,0,.24047L1.84396,4.37831c-.03238,.03291-.07485,.0499-.1205,.0499Z"/>
  <path class="cls-1" d="M1.72347,2.28256c-.04512,0-.08812-.01752-.11997-.0499l-.97141-.97088c-.06635-.06635-.06635-.17411,0-.24047,.03238-.03238,.07485-.05043,.1205-.05043s.08812,.01805,.1205,.0499l.83818,.84986L3.5442,.05043c.03291-.03291,.07538-.05043,.12103-.05043,.04459,0,.08812,.01752,.11997,.0499,.05733,.0568,.05733,.18473,0,.24153l-1.94124,1.94124c-.03185,.03238-.07485,.0499-.1205,.0499Z"/>
</svg>