<?xml version="1.0" encoding="UTF-8"?>
<svg id="Layer_1" data-name="Layer 1" xmlns="http://www.w3.org/2000/svg" viewBox="0 0 5 3.89711">
  <defs>
    <style>
      .cls-1 {
        fill: #bfb378;
      }
    </style>
  </defs>
  <path class="cls-1" d="M3.13996,3.62017H.60308c-.18401,0-.33348-.14966-.33348-.33348V.6029c0-.18382,.14947-.33348,.33348-.33348H3.37489c.18382,0,.33329,.14966,.33329,.33348v.49223c0,.07446,.06035,.13471,.1348,.13471s.1348-.06025,.1348-.13471v-.49223c0-.33246-.27053-.6029-.6029-.6029H.60308C.27053,0,0,.27044,0,.6029V3.28669c0,.33246,.27053,.6029,.60308,.6029H3.13996c.07446,0,.1348-.06025,.1348-.13471s-.06035-.13471-.1348-.13471Z"/>
  <path class="cls-1" d="M3.08282,1.01334c0-.07446-.06035-.13471-.1348-.13471H.85078c-.07446,0-.1348,.06025-.1348,.13471s.06035,.13471,.1348,.13471H2.94801c.07446,0,.1348-.06025,.1348-.13471Z"/>
  <path class="cls-1" d="M.85078,1.81008c-.07446,0-.1348,.06025-.1348,.13471s.06035,.13471,.1348,.13471h1.37328c.07446,0,.1348-.06025,.1348-.13471s-.06035-.13471-.1348-.13471H.85078Z"/>
  <path class="cls-1" d="M1.49991,2.74154H.85078c-.07446,0-.1348,.06025-.1348,.13471s.06035,.13471,.1348,.13471h.64913c.07446,0,.1348-.06025,.1348-.13471s-.06035-.13471-.1348-.13471Z"/>
  <path class="cls-1" d="M4.841,2.58266h-.83769v-.8378c0-.08781-.07117-.15888-.159-.15888s-.159,.07107-.159,.15888v.8378h-.83769c-.08781,0-.159,.07107-.159,.15888,0,.08783,.07118,.15888,.159,.15888h.83769v.8378c0,.08781,.07117,.15888,.159,.15888s.159-.07107,.159-.15888v-.8378h.83769c.08781,0,.159-.07106,.159-.15888,0-.08781-.07118-.15888-.159-.15888Z"/>
</svg>