<?xml version="1.0" encoding="UTF-8"?>
<svg id="Layer_1" data-name="Layer 1" xmlns="http://www.w3.org/2000/svg" xmlns:xlink="http://www.w3.org/1999/xlink" viewBox="0 0 5 5">
  <defs>
    <style>
      .cls-1 {
        filter: url(#drop-shadow-1);
      }

      .cls-2 {
        fill: #bfb378;
      }
    </style>
    <filter id="drop-shadow-1" filterUnits="userSpaceOnUse">
      <feOffset dx="1" dy="1"/>
      <feGaussianBlur result="blur" stdDeviation="1"/>
      <feFlood flood-color="#000" flood-opacity=".5"/>
      <feComposite in2="blur" operator="in"/>
      <feComposite in="SourceGraphic"/>
    </filter>
  </defs>
  <g class="cls-1">
    <path class="cls-2" d="M2.5,0C1.12155,0,0,1.12158,0,2.5s1.12155,2.5,2.5,2.5,2.5-1.12153,2.5-2.5S3.87846,0,2.5,0Zm0,4.74653c-.80615,0-1.51236-.42822-1.90875-1.06771,.00372-.01096,.00814-.0211,.01024-.03375,.00408-.02452,.00221-.05002,.00368-.07503,.03947-.67887,.65847-1.17996,1.33228-1.07254,.11202,.01785,.22192,.058,.32837,.09923,.12641,.04894,.20291,.04047,.24282-.04427,.03932-.0835,.00077-.15001-.12222-.21354-.02337-.0121-.04477-.02789-.06798-.04259,.3905-.47228,.40934-.93582,.05832-1.28358-.31289-.31-.81757-.33827-1.15129-.06445-.17065,.14003-.28204,.31722-.31296,.53521-.04548,.32053,.06057,.59115,.31322,.81353-.04873,.02452-.08369,.0415-.11807,.05957-.36161,.18978-.60824,.47792-.72221,.86833-.00153,.00526-.00235,.01069-.00378,.01595-.08153-.23231-.12815-.48096-.12815-.74089C.25353,1.26128,1.26123,.25358,2.5,.25358s2.24647,1.0077,2.24647,2.24642c0,1.23882-1.0077,2.24653-2.24647,2.24653ZM1.18519,1.61751c.00071-.31944,.26175-.57764,.5845-.57807,.32113-.00043,.58445,.25939,.58545,.57769,.00099,.32064-.25722,.58008-.57975,.58252-.32959,.0025-.59092-.25532-.5902-.58214Z"/>
    <path class="cls-2" d="M4.36107,2.06234c-.00513-.2583-.18232-.43723-.44326-.44021-.28022-.0032-.56055-.00331-.84077,.00005-.25783,.00309-.43937,.18614-.44097,.44358-.00229,.37202-.00194,.74403-.00018,1.1161,.00123,.26009,.17409,.44439,.43418,.45085,.28726,.00716,.57502,.00787,.86222-.00038,.25822-.00743,.42565-.18717,.42847-.4432,.00206-.18598,.00041-.37202,.00043-.55805,.00005-.1824,.00005-.36485,.00005-.54731,0-.00716-.00003-.01432-.00018-.02143Zm-.28041,1.0982c-.0013,.13536-.05222,.19043-.18949,.19227-.26248,.00363-.52509,.00374-.78756-.00005-.13576-.00201-.18705-.05783-.18762-.19461-.00153-.35444-.00155-.70893,0-1.06337,.0006-.13406,.0542-.19048,.19024-.19233,.26248-.00358,.52507-.0032,.78756-.00043,.13302,.00141,.18564,.05887,.18692,.19515,.00163,.1754,.00039,.35086,.00039,.52631-.00001,.17904,.00129,.35807-.00043,.53706Z"/>
    <path class="cls-2" d="M3.77894,2.20139c-.18701-.00228-.37409-.00217-.56112-.00005-.08906,.00098-.146,.05008-.14586,.13873,.00014,.08892,.05816,.13558,.14682,.1377,.09347,.00222,.18703,.00049,.28056,.00049,.09351-.00005,.18709,.0019,.28054-.0006,.08865-.00233,.14545-.04839,.14529-.13851-.00016-.09044-.05815-.13666-.14624-.13775Z"/>
    <path class="cls-2" d="M3.77968,2.77897c-.09342-.00119-.18689-.00027-.28033-.00016-.09345,.00005-.18692-.00125-.28033,.00043-.08889,.00163-.14804,.04709-.1464,.13656,.00157,.08653,.05835,.13835,.14692,.13959,.18685,.0026,.37381,.00277,.56063-.00022,.08765-.00146,.14505-.04932,.14502-.13943-.00005-.09039-.05585-.13558-.14551-.13677Z"/>
  </g>
</svg>