<?xml version="1.0" encoding="UTF-8"?>
<svg id="Layer_1" data-name="Layer 1" xmlns="http://www.w3.org/2000/svg" viewBox="0 0 5 2.79758">
  <defs>
    <style>
      .cls-1 {
        fill: #fff;
      }

      .cls-2 {
        fill: #ffa100;
      }
    </style>
  </defs>
  <g>
    <path class="cls-1" d="M4.10068,2.32479c-.54609,0-.98178-.47271-.92019-1.03126,.04781-.43354,.40431-.78016,.8389-.81726,.22726-.0194,.43912,.04345,.60937,.16198,.0939,.06538,.22092,.0543,.30183-.0266h0c.10393-.10393,.08918-.27699-.03138-.36107-.22639-.15789-.50157-.25058-.79853-.25058-.52361,0-.9797,.28789-1.21944,.71384-.01861,.03307-.01922,.07286-.0054,.1082,.06991,.17877,.10849,.37322,.10849,.57675s-.03858,.39798-.10849,.57675c-.01382,.03534-.01321,.07514,.0054,.1082,.23974,.42595,.69583,.71384,1.21944,.71384,.29698,0,.57218-.09271,.79858-.25062,.12052-.08407,.13528-.25708,.03137-.36098h0c-.08161-.08161-.20915-.09081-.30405-.02514-.14935,.10335-.33052,.16395-.5259,.16395Z"/>
    <path class="cls-1" d="M1.55323,2.31185c-.09388,.01586-.19255,.01762-.29392,.00258-.41733-.06191-.74476-.40947-.78264-.82967-.05091-.56469,.40557-1.03641,.96529-1.01099,.46944,.02132,.84142,.37934,.87967,.8477,.01568,.19194-.02766,.37255-.11326,.52642l-.0911-.0911c-.18464-.18463-.48398-.18463-.66862,0h0s.98893,.98893,.98893,.98893c.03234,.03234,.0762,.05051,.12194,.05051h.5872l.005-.00499-.60044-.60042c.17565-.25503,.2693-.57085,.24145-.90984C2.73714,.6045,2.18831,.05748,1.51163,.00443,.67388-.06124-.02386,.61174,.00063,1.44112c.02032,.6882,.62641,1.31332,1.31371,1.35395,.10741,.00635,.21234,.00049,.31359-.01628,.19024-.0315,.2657-.26455,.12935-.4009h0c-.05351-.05351-.12944-.07865-.20405-.06605Z"/>
  </g>
  <path class="cls-2" d="M4.08158,1.98936c-.05722,0-.10403-.04681-.10403-.10403v-.24032c0-.07857-.06369-.14226-.14226-.14226h-.24035c-.05744,0-.104-.04656-.104-.104h0c0-.05739,.04652-.10391,.10391-.10391h.24048c.07855,0,.14223-.06368,.14223-.14223v-.24042c0-.05744,.04656-.104,.104-.104h0c.05742,0,.10397,.04655,.10397,.10397v.24042c0,.07857,.06369,.14226,.14226,.14226h.24042c.0574,0,.10394,.04653,.10394,.10394h0c0,.05742-.04655,.10397-.10397,.10397h-.24042c-.07855,0-.14223,.06368-.14223,.14223v.24045c0,.0574-.04653,.10394-.10394,.10394h0Z"/>
</svg>