<?xml version="1.0" encoding="UTF-8"?>
<svg id="Layer_1" data-name="Layer 1" xmlns="http://www.w3.org/2000/svg" viewBox="0 0 5 5.00001">
  <defs>
    <style>
      .cls-1 {
        fill: #bfb378;
      }
    </style>
  </defs>
  <g>
    <circle class="cls-1" cx="1.71297" cy="2.58143" r=".2417"/>
    <circle class="cls-1" cx="2.5" cy="2.58143" r=".2417"/>
    <circle class="cls-1" cx="3.28703" cy="2.58143" r=".2417"/>
  </g>
  <path class="cls-1" d="M2.50001,0C1.1215,0,0,1.1215,0,2.50001c0,.29661,.05349,.58057,.14883,.84469v1.14411c0,.08281,.06719,.15,.15,.15h.91458c.37603,.22809,.81546,.36121,1.2866,.36121,1.37851,0,2.49999-1.12149,2.49999-2.50001S3.87851,0,2.50001,0Zm0,4.70372c-.4473,0-.86338-.13472-1.21127-.36462h-.00109v-.00029s-.83882,0-.83882,0v-1.03936h-.00027v-.00026c-.09703-.24815-.15227-.51708-.15227-.79918C.29629,1.28488,1.28488,.2963,2.50001,.2963s2.20372,.98858,2.20372,2.2037-.98859,2.20372-2.20372,2.20372Z"/>
</svg>