<?xml version="1.0" encoding="UTF-8"?>
<svg id="Layer_1" data-name="Layer 1" xmlns="http://www.w3.org/2000/svg" viewBox="0 0 3.9823 5">
  <defs>
    <style>
      .cls-1 {
        fill: #fff;
      }
    </style>
  </defs>
  <path class="cls-1" d="M2.11228,.81281c-.17341,0-.31398,.14058-.31398,.31403,0,.17336,.14058,.31394,.31398,.31394s.31398-.14058,.31398-.31394c0-.17345-.14058-.31403-.31398-.31403Z"/>
  <path class="cls-1" d="M3.59149,0H.75186V.00056C.33749,.00355,.00116,.34074,.00018,.75556h-.00018v3.49589H.00088c.00481,.41341,.34182,.74855,.75636,.74855h.03988c.05283,0,.09565-.04278,.09565-.09565v-1.1643H3.59114c.21559,0,.39102-.17542,.39116-.39109V.391c-.00014-.21549-.17538-.39081-.39081-.391ZM.62171,4.7097c-.20232-.05885-.35064-.24594-.35064-.46703V1.33738c.09871,.08294,.21873,.14123,.35064,.16514v3.20717Zm3.08955-1.36092c0,.06622-.0539,.12012-.12012,.12012H.89277V1.33925c0-.05287-.04281-.09565-.09565-.09565h-.01102c-.25431,0-.48658-.18242-.51242-.43546-.0297-.29077,.19872-.53699,.48356-.53699v-.00009H3.59114c.06622,0,.12012,.0539,.12012,.12012V3.34878Z"/>
</svg>