<?xml version="1.0" encoding="UTF-8"?>
<svg id="Layer_1" data-name="Layer 1" xmlns="http://www.w3.org/2000/svg" viewBox="0 0 5 5.75241">
  <defs>
    <style>
      .cls-1 {
        fill: #fff;
      }
    </style>
  </defs>
  <path class="cls-1" d="M4.90135,.74222h-1.60443V.26987c0-.14866-.12121-.26987-.27001-.26987H1.97296c-.1488,0-.26987,.12121-.26987,.26987v.47235H.09865c-.05449,0-.09865,.0443-.09865,.09865s.04416,.09865,.09865,.09865H.49708V5.05286c0,.38565,.31377,.69955,.69942,.69955H3.80351c.38565,0,.69942-.3139,.69942-.69955V.93953h.39842c.05449,0,.09865-.0443,.09865-.09865s-.04416-.09865-.09865-.09865ZM1.90039,.26987c0-.03995,.03248-.07256,.07256-.07256h1.05395c.04009,0,.0727,.03261,.0727,.07256v.47235H1.90039V.26987Zm2.40522,4.78299c0,.27694-.22517,.50224-.50211,.50224H1.19649c-.27694,0-.50211-.2253-.50211-.50224V.93953h3.61122V5.05286Z"/>
  <path class="cls-1" d="M1.80255,1.78475c-.05449,0-.09865,.0443-.09865,.09865v2.72782c0,.05436,.04416,.09865,.09865,.09865s.09865-.0443,.09865-.09865V1.88341c0-.05436-.04416-.09865-.09865-.09865Z"/>
  <path class="cls-1" d="M3.09879,1.88341v2.72782c0,.05436,.04416,.09865,.09865,.09865s.09865-.0443,.09865-.09865V1.88341c0-.05436-.04416-.09865-.09865-.09865s-.09865,.0443-.09865,.09865Z"/>
</svg>