<?xml version="1.0" encoding="UTF-8"?>
<svg id="Layer_1" data-name="Layer 1" xmlns="http://www.w3.org/2000/svg" viewBox="0 0 3.24515 5">
  <defs>
    <style>
      .cls-1 {
        fill: #fff;
      }
    </style>
  </defs>
  <path class="cls-1" d="M1.62266,0C.72649,0,0,.72649,0,1.62249c0,1.62249,1.62266,3.37751,1.62266,3.37751,0,0,1.62249-1.87186,1.62249-3.37751,0-.896-.72649-1.62249-1.62249-1.62249Zm0,.60268c.28913,0,.52368,.23438,.52368,.52368,0,.28913-.23455,.52368-.52368,.52368-.28931,0-.52368-.23455-.52368-.52368,0-.28931,.23438-.52368,.52368-.52368Zm.77445,2.09473H.84787c-.0783,0-.14178-.0633-.14178-.14195,0-.3915,.31738-.70905,.70905-.70905h.41486c.39167,0,.70905,.31756,.70905,.70905,0,.07865-.06348,.14195-.14195,.14195Z"/>
</svg>