<?xml version="1.0" encoding="UTF-8"?>
<svg id="Layer_1" data-name="Layer 1" xmlns="http://www.w3.org/2000/svg" viewBox="0 0 5 3.20379">
  <defs>
    <style>
      .cls-1 {
        fill: #fff;
      }
    </style>
  </defs>
  <path class="cls-1" d="M3.89266,.16791H.08396c-.04641,0-.08396-.03759-.08396-.08396,0-.04636,.03755-.08396,.08396-.08396H3.89266c.0464,0,.08396,.0376,.08396,.08396,0,.04637-.03755,.08396-.08396,.08396Z"/>
  <path class="cls-1" d="M3.89266,1.68585H.08396c-.04641,0-.08396-.0376-.08396-.08396s.03755-.08396,.08396-.08396H3.89266c.0464,0,.08396,.0376,.08396,.08396s-.03755,.08396-.08396,.08396Z"/>
  <path class="cls-1" d="M3.89266,3.20379H.08396c-.04641,0-.08396-.0376-.08396-.08396,0-.04637,.03755-.08396,.08396-.08396H3.89266c.0464,0,.08396,.03759,.08396,.08396,0,.04636-.03755,.08396-.08396,.08396Z"/>
  <path class="cls-1" d="M4.91604,1.68585h-.22039c-.04641,0-.08396-.0376-.08396-.08396s.03755-.08396,.08396-.08396h.22039c.0464,0,.08396,.0376,.08396,.08396s-.03755,.08396-.08396,.08396Z"/>
  <path class="cls-1" d="M4.91604,.16791h-.22039c-.04641,0-.08396-.03759-.08396-.08396,0-.04636,.03755-.08396,.08396-.08396h.22039c.0464,0,.08396,.0376,.08396,.08396,0,.04637-.03755,.08396-.08396,.08396Z"/>
  <path class="cls-1" d="M4.91604,3.20379h-.22039c-.04641,0-.08396-.0376-.08396-.08396,0-.04637,.03755-.08396,.08396-.08396h.22039c.0464,0,.08396,.03759,.08396,.08396,0,.04636-.03755,.08396-.08396,.08396Z"/>
</svg>