<?xml version="1.0" encoding="UTF-8"?>
<svg id="Layer_1" data-name="Layer 1" xmlns="http://www.w3.org/2000/svg" viewBox="0 0 5 4.99986">
  <defs>
    <style>
      .cls-1 {
        fill: #fff;
      }
    </style>
  </defs>
  <path class="cls-1" d="M4.9705,4.8281l-1.45331-1.45331c.32503-.35877,.52497-.83284,.52497-1.35385C4.04216,.90672,3.13544,0,2.02108,0S0,.90672,0,2.02094s.90672,2.02094,2.02108,2.02094c.52101,0,.99504-.1999,1.35383-.52485l1.45346,1.45346c.01967,.01939,.04529,.02937,.07106,.02937s.05139-.00997,.07106-.02937c.03934-.03934,.03934-.10306,0-.14239ZM.20112,2.02094C.20112,1.01754,1.01754,.20112,2.02108,.20112s1.81996,.81641,1.81996,1.81982-.81641,1.81982-1.81996,1.81982S.20112,3.02435,.20112,2.02094Z"/>
</svg>