<svg xmlns="http://www.w3.org/2000/svg" viewBox="0 0 6 6"><rect width="6" height="6" fill="none"/><path d="M5.452,2.88442,4.4746,1.907a.16347.16347,0,1,0-.23118.23117l.69831.69848h-2.004a.16347.16347,0,1,0,0,.32693h2.004l-.69831.69824A.16347.16347,0,0,0,4.4746,4.093L5.452,3.11559a.16319.16319,0,0,0,0-.23117Z" transform="translate(0 0)" fill="#fff"/><path d="M3.71159,4.14088v.76329a.06534.06534,0,0,1-.06534.06512H.76136A.06534.06534,0,0,1,.696,4.90417V1.09583a.0654.0654,0,0,1,.06534-.06535H3.64625a.0654.0654,0,0,1,.06534.06535v.76329h.196V1.09583A.26155.26155,0,0,0,3.64625.83446H.76136A.26155.26155,0,0,0,.5,1.09583V4.90417a.26155.26155,0,0,0,.26136.26137H3.64625a.26155.26155,0,0,0,.26136-.26137V4.14088Z" transform="translate(0 0)" fill="#fff"/></svg>