<?xml version="1.0" encoding="UTF-8"?>
<svg id="Layer_1" data-name="Layer 1" xmlns="http://www.w3.org/2000/svg" viewBox="0 0 4.375 5">
  <defs>
    <style>
      .cls-1 {
        fill: #fff;
      }
    </style>
  </defs>
  <path class="cls-1" d="M2.65625,2.96875h-.9375c-.94922,0-1.71875,.76953-1.71875,1.71875,0,.17256,.13994,.3125,.3125,.3125h3.75c.17256,0,.3125-.13994,.3125-.3125,0-.94922-.76953-1.71875-1.71875-1.71875ZM.47842,4.53125c.07715-.61621,.60361-1.09375,1.24033-1.09375h.9375c.63633,0,1.16309,.47803,1.24023,1.09375H.47842Zm1.70908-2.03125c.69033,0,1.25-.55967,1.25-1.25s-.55967-1.25-1.25-1.25S.9375,.55967,.9375,1.25c0,.69043,.55957,1.25,1.25,1.25ZM2.1875,.46875c.43076,0,.78125,.35049,.78125,.78125s-.35049,.78125-.78125,.78125-.78125-.35059-.78125-.78125c0-.43076,.35059-.78125,.78125-.78125Z"/>
</svg>