<?xml version="1.0" encoding="UTF-8"?>
<svg id="Layer_1" data-name="Layer 1" xmlns="http://www.w3.org/2000/svg" viewBox="0 0 4.18209 5">
  <defs>
    <style>
      .cls-1 {
        fill: #e2d8c8;
      }
    </style>
  </defs>
  <rect class="cls-1" x=".76772" y="2.52498" width=".64161" height=".64161" rx=".32081" ry=".32081"/>
  <rect class="cls-1" x="1.77024" y="2.52498" width=".64161" height=".64161" rx=".32081" ry=".32081"/>
  <rect class="cls-1" x="2.77276" y="2.52498" width=".64161" height=".64161" rx=".32081" ry=".32081"/>
  <rect class="cls-1" x=".76772" y="3.52466" width=".64161" height=".64161" rx=".32081" ry=".32081"/>
  <rect class="cls-1" x="1.77024" y="3.52466" width=".64161" height=".64161" rx=".32081" ry=".32081"/>
  <path class="cls-1" d="M4.16883,.69597c-.00814-.02694-.01904-.05273-.03451-.07552-.00472-.00708-.01082-.0131-.01619-.01969-.00594-.00724-.01131-.01506-.0179-.02165-.00366-.00366-.00806-.00643-.01188-.00985-.04948-.04427-.1141-.07202-.18579-.07202h-.4999V.19987c0-.11035-.08952-.19987-.19987-.19987-.11043,0-.19995,.08952-.19995,.19987V.49723H1.17926V.19987c0-.11035-.08952-.19987-.19995-.19987H.97931c-.11035,0-.19987,.08952-.19987,.19987V.49723H.27954c-.01929,0-.03817,.00195-.05632,.0057-.12744,.02604-.22323,.13867-.22323,.27376v3.94376c0,.15438,.12516,.27954,.27954,.27954H3.90255c.15438,0,.27954-.12516,.27954-.27954V.7767c0-.02832-.00545-.05501-.01327-.08073Zm-.22298,4.02449c0,.02393-.01937,.04329-.04329,.04329H.27954c-.02393,0-.04329-.01937-.04329-.04329V1.9275H3.94585v2.79296Z"/>
</svg>