<svg xmlns="http://www.w3.org/2000/svg" viewBox="0 0 3.98052 4.99777"><path d="M2.11134.81245a.31384.31384,0,1,0,.31385.31389A.31385.31385,0,0,0,2.11134.81245Z" fill="#ff8143"/><path d="M3.58989,0H.75152V.00056A.75746.75746,0,0,0,.00018.75522H0V4.24955H.00088a.7573.7573,0,0,0,.756.74822H.79677a.09557.09557,0,0,0,.0956-.0956V3.73838H3.58954a.39152.39152,0,0,0,.391-.39091V.39082A.39149.39149,0,0,0,3.58989,0ZM.62143,4.70759a.48693.48693,0,0,1-.35049-.46681v-2.904a.75349.75349,0,0,0,.35049.16507ZM3.7096,3.34728a.12021.12021,0,0,1-.12006.12007H.89237V1.33865a.09557.09557,0,0,0-.0956-.0956h-.011A.506.506,0,0,1,.27356.80778.48646.48646,0,0,1,.7569.271V.27094H3.58954A.12021.12021,0,0,1,3.7096.391Z" fill="#ff8143"/></svg>