<?xml version="1.0" encoding="UTF-8"?>
<svg id="Layer_1" data-name="Layer 1" xmlns="http://www.w3.org/2000/svg" viewBox="0 0 5 5">
  <defs>
    <style>
      .cls-1 {
        fill: #fff;
      }

      .cls-2 {
        fill: #13db94;
      }
    </style>
  </defs>
  <path class="cls-2" d="M2.5,0h0c1.38071,0,2.5,1.11929,2.5,2.5h0c0,1.38071-1.11929,2.5-2.5,2.5h0C1.11929,5,0,3.88071,0,2.5H0C0,1.11929,1.11929,0,2.5,0Z"/>
  <path class="cls-1" d="M4.15941,2.28427h-1.44381V.84046c0-.11869-.09677-.21546-.2156-.21546s-.2156,.09677-.2156,.21546v1.44381H.8406c-.11882,0-.2156,.09677-.2156,.21573,0,.11869,.09677,.21546,.2156,.21546h1.44381v1.44381c0,.11896,.09677,.21573,.2156,.21573s.2156-.09677,.2156-.21573v-1.44381h1.44381c.11882,0,.2156-.09677,.2156-.21546,0-.11896-.09677-.21573-.2156-.21573h-.00001Z"/>
</svg>